<svg xmlns="http://www.w3.org/2000/svg" width="313.231" height="110.288" viewBox="0 0 313.231 110.288">
  <g id="Group_245" data-name="Group 245" transform="translate(-27.604 -106.345)">
    <g id="Group_12" data-name="Group 12" transform="translate(-32.166 -493.655)">
      <g id="Group_1" data-name="Group 1" transform="translate(59.77 600)">
        <rect id="Rectangle_4" data-name="Rectangle 4" width="31.194" height="31.194" transform="translate(44.115 22.058) rotate(45)" fill="#2f49d0" opacity="0.6"/>
        <path id="Rectangle_11" data-name="Rectangle 11" d="M0,0H31.194V31.194H4a4,4,0,0,1-4-4Z" transform="translate(22.058 44.115) rotate(45)" fill="#2f49d0" opacity="0.8"/>
        <rect id="Rectangle_7" data-name="Rectangle 7" width="31.194" height="31.194" transform="translate(88.23 22.058) rotate(45)" fill="#2f49d0" opacity="0.6"/>
        <rect id="Rectangle_9" data-name="Rectangle 9" width="31.194" height="31.194" transform="translate(66.172 44.115) rotate(45)" fill="#2f49d0" opacity="0.8"/>
        <path id="Rectangle_13" data-name="Rectangle 13" d="M0,0H31.194V27.194a4,4,0,0,1-4,4H0Z" transform="translate(88.23 66.173) rotate(45)" fill="#2f49d0"/>
        <path id="Rectangle_14" data-name="Rectangle 14" d="M0,0H31.194V27.194a4,4,0,0,1-4,4H0Z" transform="translate(44.115 66.173) rotate(45)" fill="#2f49d0"/>
        <path id="Rectangle_15" data-name="Rectangle 15" d="M0,0H31.194V27.194a4,4,0,0,1-4,4H0Z" transform="translate(132.345 66.173) rotate(45)" fill="#2f49d0"/>
        <rect id="Rectangle_10" data-name="Rectangle 10" width="31.194" height="31.194" transform="translate(110.287 44.115) rotate(45)" fill="#2f49d0" opacity="0.8"/>
        <path id="Rectangle_12" data-name="Rectangle 12" d="M0,0H27.194a4,4,0,0,1,4,4V31.194H0Z" transform="translate(154.402 44.115) rotate(45)" fill="#2f49d0" opacity="0.8"/>
        <rect id="Rectangle_8" data-name="Rectangle 8" width="31.194" height="31.194" transform="translate(132.345 22.058) rotate(45)" fill="#2f49d0" opacity="0.6"/>
        <path id="Rectangle_5" data-name="Rectangle 5" d="M3,0H31.194V31.194H0V3A3,3,0,0,1,3,0Z" transform="translate(66.172) rotate(45)" fill="#2f49d0" opacity="0.4"/>
        <path id="Rectangle_6" data-name="Rectangle 6" d="M3,0H31.194V31.194H0V3A3,3,0,0,1,3,0Z" transform="translate(110.287) rotate(45)" fill="#2f49d0" opacity="0.4"/>
      </g>
      <path id="Path_1" data-name="Path 1" d="M46.058-4.975,28.126-31.143,45.329-56H32.062l-15.6,22.16V-56H4.8V-4.975H16.463V-28.592L32.791-4.975Zm10.5-13.85H82.431a21.189,21.189,0,0,0,.437-4.374C82.869-34.2,75-42.442,64.354-42.442c-11.517,0-19.39,8.383-19.39,19.244S52.691-3.954,65.156-3.954c6.925,0,12.319-2.551,15.891-7.508L72.3-16.492a9.517,9.517,0,0,1-7,2.77C61.292-13.722,57.939-15.034,56.554-18.824Zm-.219-8.164c1.021-3.718,3.79-5.759,7.945-5.759a7.5,7.5,0,0,1,7.727,5.759Zm54.233-14.433-6.852,22.305L95.625-41.421H83.6L98.1-6.651C96.5-2.2,94.094-.6,88.992-.6V9.6c10.205.51,16.693-4.082,20.775-15.672l12.465-35.353Z" transform="translate(250.77 694.4)"/>
    </g>
    <g id="Group_114" data-name="Group 114">
      <path id="Path_197" data-name="Path 197" d="M60.286,205l26.531-26.72L109.3,200.761,158,152.4" transform="translate(6 -4)" fill="none" stroke="#fff" stroke-width="3"/>
      <path id="Polygon_4" data-name="Polygon 4" d="M9.138,1.465a1,1,0,0,1,1.724,0l8.252,14.028A1,1,0,0,1,18.252,17H1.748a1,1,0,0,1-.862-1.507Z" transform="translate(160.939 137.419) rotate(45)" fill="#fff"/>
    </g>
  </g>
</svg>
